<svg xmlns="http://www.w3.org/2000/svg" width="24" height="24" viewBox="0 0 24 24">
    <defs>
        <style>
            .cls-2{fill:#cbcbcb}
        </style>
    </defs>
    <g id="brunch_icon" transform="translate(-484 -2876)">
        <path id="사각형_32" fill="none" d="M0 0H24V24H0z" transform="translate(484 2876)"/>
        <g id="그룹_65" transform="translate(488.833 2877.833)">
            <path id="패스_74" d="M1629.626 1490.4a1.46 1.46 0 0 0-.419.206 16.193 16.193 0 0 0-1.7 1.4 26.391 26.391 0 0 0-3.626 5.107c-1.874 3.219-3.7 6.469-5.543 9.7-.169.3-.346.59-.532.906l-.851-.442-.2.354.783.55c-.415.78-.774 1.36-1.178 2.149a.574.574 0 0 0-.093.279c.011.118.229.014.229.014a14.273 14.273 0 0 0 1.457-.765c.212-.188.2-.639.319-.927a.783.783 0 0 1 .228-.3.71.71 0 0 1 .216-.14.974.974 0 0 1 .286-.019c.21-.008.418-.023.627-.044.307-.029.613-.071.917-.122q.571-.1 1.133-.242a12.676 12.676 0 0 0 1.276-.4q.274-.1.541-.218.139-.06.277-.123l.136-.063a.8.8 0 0 1 .136-.066 10.941 10.941 0 0 0 3.038-2.165 4.466 4.466 0 0 0 1.317-2.476 1.516 1.516 0 0 0-1.692-1.95 4.081 4.081 0 0 0-1.235.257 10.292 10.292 0 0 0-3.4 2.344c-.266.249-.526.5-.79.757a.452.452 0 0 1 .067-.279 25.484 25.484 0 0 1 3.317-4.587c.514-.56 1.055-1.1 1.545-1.676a1.263 1.263 0 0 0 .291-1.5l.308-.18a7.56 7.56 0 0 0 3.059-3.2 6.655 6.655 0 0 0 .537-1.508c.124-.552-.244-.819-.781-.631zm-5.655 12.054c.393-.273.82-.5 1.241-.733a2.913 2.913 0 0 1 .524-.22c.9-.292 1.332.08 1.146 1.005a5.353 5.353 0 0 1-1.652 2.748 9.79 9.79 0 0 1-5.667 2.564c-.154.023-.31.039-.465.056a.846.846 0 0 1-.141-.012c.089-.137.161-.26.241-.375a19.3 19.3 0 0 1 4.772-5.029zm4.9-9.972a9.514 9.514 0 0 1-3.113 3.285.3.3 0 0 0-.069.263c.036.153.229.339.08.664a19.475 19.475 0 0 1-1.745 1.88s1.153-2.1 1.564-2.663c.194-.268.834-1.184 1.565-2.119a20.982 20.982 0 0 1 2.167-2.473 5.6 5.6 0 0 1-.446 1.168z" class="cls-2" transform="translate(-1616.264 -1490.342)"/>
            <path id="패스_75" d="M1654.185 1775.8h-12.156a.023.023 0 0 1-.017-.035l.175-.284a.02.02 0 0 1 .017-.01h12.157a.023.023 0 0 1 .017.035l-.175.284a.02.02 0 0 1-.018.01z" class="cls-2" transform="translate(-1640.046 -1755.481)"/>
        </g>
    </g>
</svg>
