<svg width="20" height="12" viewBox="0 0 20 12" fill="none" xmlns="http://www.w3.org/2000/svg">
<path d="M19 5C19.5523 5 20 5.44772 20 6C20 6.55228 19.5523 7 19 7V5ZM1 6L0.377209 6.78239C0.138864 6.59266 -2.04891e-07 6.30464 -2.04891e-07 6C-2.04891e-07 5.69536 0.138864 5.40734 0.377209 5.21761L1 6ZM6.65851 0.217612C7.09062 -0.126346 7.71974 -0.0548921 8.06369 0.377209C8.40765 0.80931 8.3362 1.43843 7.9041 1.78239L6.65851 0.217612ZM7.9041 10.2176C8.3362 10.5616 8.40765 11.1907 8.06369 11.6228C7.71974 12.0549 7.09062 12.1263 6.65851 11.7824L7.9041 10.2176ZM19 7H1V5H19V7ZM7.9041 1.78239L1.62279 6.78239L0.377209 5.21761L6.65851 0.217612L7.9041 1.78239ZM6.65851 11.7824L0.377209 6.78239L1.62279 5.21761L7.9041 10.2176L6.65851 11.7824Z" fill="#BEBEBE"/>
</svg>
