<svg width="20" height="12" viewBox="0 0 20 12" fill="none" xmlns="http://www.w3.org/2000/svg">
<path d="M1 5C0.447715 5 0 5.44772 0 6C0 6.55228 0.447715 7 1 7V5ZM19 6L19.6228 6.78239C19.8611 6.59266 20 6.30464 20 6C20 5.69536 19.8611 5.40734 19.6228 5.21761L19 6ZM13.3415 0.217612C12.9094 -0.126346 12.2803 -0.0548921 11.9363 0.377209C11.5923 0.80931 11.6638 1.43843 12.0959 1.78239L13.3415 0.217612ZM12.0959 10.2176C11.6638 10.5616 11.5923 11.1907 11.9363 11.6228C12.2803 12.0549 12.9094 12.1263 13.3415 11.7824L12.0959 10.2176ZM1 7H19V5H1V7ZM12.0959 1.78239L18.3772 6.78239L19.6228 5.21761L13.3415 0.217612L12.0959 1.78239ZM13.3415 11.7824L19.6228 6.78239L18.3772 5.21761L12.0959 10.2176L13.3415 11.7824Z" fill="#BEBEBE"/>
</svg>
