<svg width="42" height="42" viewBox="0 0 42 42" fill="none" xmlns="http://www.w3.org/2000/svg">
<circle cx="21" cy="21" r="20" fill="white"/>
<path d="M27.984 8.22598C27.8031 8.28134 27.6323 8.36543 27.478 8.475C26.754 8.99262 26.0661 9.559 25.4191 10.1701C23.7179 12.0465 22.2462 14.1187 21.035 16.343C18.769 20.235 16.565 24.163 14.335 28.075C14.135 28.434 13.916 28.7881 13.692 29.1701L12.6641 28.636L12.423 29.064L13.37 29.729C12.87 30.672 12.4331 31.373 11.9451 32.329C11.8791 32.4297 11.8405 32.5459 11.833 32.666C11.846 32.809 12.11 32.683 12.11 32.683C12.7146 32.4088 13.303 32.0999 13.8721 31.758C14.1281 31.53 14.114 30.985 14.257 30.637C14.3189 30.4975 14.4136 30.3751 14.533 30.2801C14.6092 30.2081 14.6981 30.1508 14.795 30.111C14.9085 30.0859 15.0251 30.0778 15.141 30.0871C15.394 30.0771 15.647 30.059 15.899 30.034C16.2697 29.9986 16.639 29.9493 17.007 29.886C17.4676 29.8087 17.9244 29.7114 18.3771 29.594C18.8996 29.4592 19.4146 29.297 19.92 29.1081C20.1407 29.0261 20.3586 28.9383 20.574 28.845C20.686 28.797 20.7977 28.7473 20.9091 28.6959L21.073 28.619C21.125 28.5873 21.18 28.5604 21.2371 28.539C22.6017 27.883 23.8437 26.9979 24.9091 25.922C25.7478 25.121 26.3064 24.0712 26.5021 22.928C26.5956 22.6295 26.6111 22.3121 26.5472 22.0059C26.4834 21.6997 26.3423 21.415 26.1373 21.1787C25.9324 20.9425 25.6703 20.7626 25.3762 20.6563C25.0821 20.5499 24.7657 20.5205 24.457 20.5709C23.9462 20.5965 23.4425 20.7015 22.964 20.882C21.4177 21.5393 20.0207 22.503 18.8571 23.715C18.5351 24.015 18.221 24.325 17.902 24.63C17.8916 24.5119 17.9201 24.3935 17.983 24.293C19.1096 22.3014 20.4546 20.4416 21.993 18.7479C22.614 18.0709 23.269 17.4239 23.861 16.7219C24.1098 16.4996 24.279 16.2019 24.3425 15.8743C24.4061 15.5467 24.3606 15.2073 24.213 14.908L24.585 14.6911C26.1775 13.7982 27.4663 12.4489 28.285 10.817C28.5739 10.2377 28.7917 9.6256 28.934 8.99404C29.078 8.31604 28.633 7.99198 27.984 8.22598V8.22598ZM21.147 22.797C21.622 22.467 22.138 22.197 22.647 21.911C22.8488 21.802 23.0609 21.7129 23.28 21.645C24.372 21.292 24.89 21.745 24.666 22.86C24.3548 24.1458 23.6567 25.3053 22.666 26.182C20.7804 27.9326 18.3757 29.0209 15.816 29.282C15.629 29.309 15.441 29.329 15.254 29.35C15.1967 29.3501 15.1395 29.3454 15.083 29.336C15.19 29.17 15.278 29.022 15.374 28.882C16.9151 26.5217 18.871 24.4601 21.147 22.797V22.797ZM27.0751 10.7431C26.1581 12.3503 24.8669 13.7124 23.311 14.714C23.2731 14.7567 23.2457 14.8077 23.2311 14.8629C23.2165 14.9182 23.2151 14.9761 23.2271 15.032C23.2711 15.217 23.504 15.4411 23.327 15.8321C22.6743 16.6352 21.9695 17.3945 21.217 18.105C21.217 18.105 22.6101 15.572 23.1071 14.886C23.3421 14.562 24.116 13.455 24.999 12.324C25.7927 11.2603 26.6688 10.2606 27.619 9.33401C27.4907 9.82247 27.3083 10.2951 27.0751 10.7431V10.7431Z" fill="#020202"/>
<path d="M28.9241 32.7169H14.2241C14.2194 32.7167 14.2147 32.7153 14.2107 32.7126C14.2067 32.71 14.2034 32.7063 14.2013 32.702C14.1992 32.6978 14.1983 32.6931 14.1986 32.6884C14.1989 32.6836 14.2005 32.6789 14.2031 32.6749L14.4141 32.332C14.4162 32.3284 14.4193 32.3252 14.423 32.3231C14.4267 32.321 14.4308 32.3199 14.4351 32.3199H29.135C29.1398 32.3204 29.1445 32.3221 29.1484 32.3248C29.1524 32.3276 29.1556 32.3313 29.1577 32.3356C29.1598 32.3399 29.1607 32.3447 29.1604 32.3495C29.1601 32.3543 29.1587 32.3589 29.1561 32.3629L28.9441 32.7059C28.942 32.7093 28.9391 32.7122 28.9356 32.7141C28.932 32.716 28.9281 32.717 28.9241 32.7169V32.7169Z" fill="#020202"/>
</svg>
